:SAMPLES-PER-SECOND 30
:FULLY-SPECIFIED
:DEGREES
218
root  40.5347 38.0815 1.58898 -78.5381 84.9486 -69.0675
RightUpLeg  4.07872 -4.01206 4.1403
RightLeg  24.1179 1.09792 0.319192
RightFoot  -16.1378 -0.224472 -2.86593
RightToes  5.82063e-011 0 -3.6325e-017
Spine  8.11997 -0.0658061 9.61927
Spine1  17.1557 1.83264 -3.83778
HEad  -5.14341 1.71322 -0.61945
LeftShoulder1  0.840321 0.620533 -22.8069
LeftArm  0.606795 -44.592 -43.827
LeftForeArm  -2.91515 -33.4526 -7.59373
LeftHand  -0.0288794 5.51345 0.532578
RightShoulder  0.7307 -0.686095 19.664
RightArm  6.32244 45.1991 50.598
RightForeArm  -27.3487 26.4226 6.94469
RightHand  -0.221616 3.3292 -3.18436
LeftUpLeg  -13.574 5.64407 4.43194
LeftLeg  4.57868 -6.40444 -0.172733
LeftFoot  7.6582 0.215673 -1.56861
LeftToes  1.81573e-012 2.54609e-010 -3.45981e-011
219
root  41.6564 37.7213 1.47477 -58.6985 84.7678 -48.4652
RightUpLeg  4.67274 -2.66622 3.07427
RightLeg  28.444 1.52396 0.658222
RightFoot  -19.1424 -0.195823 -0.974895
RightToes  5.82063e-011 0 -3.6325e-017
Spine  8.54425 0.557652 8.05088
Spine1  17.3158 2.58363 -4.36244
HEad  -5.21259 1.24813 0.295258
LeftShoulder1  0.945524 0.188849 -22.2132
LeftArm  1.78604 -46.8812 -43.8347
LeftForeArm  -4.47295 -30.5023 -6.89781
LeftHand  -0.0280406 6.0068 0.473039
RightShoulder  0.877628 -0.0756714 19.2403
RightArm  10.3255 48.625 51.948
RightForeArm  -29.7941 20.1081 6.10223
RightHand  -0.184078 3.20748 -2.72275
LeftUpLeg  -13.9817 6.28136 4.13758
LeftLeg  9.40932 -4.84457 -0.66659
LeftFoot  13.5133 -0.0789781 0.061165
LeftToes  1.81573e-012 2.54609e-010 -3.45981e-011
220
root  42.6517 37.4414 1.33604 -33.7913 84.5452 -22.8594
RightUpLeg  3.19529 -1.26481 0.842136
RightLeg  35.8239 1.76193 1.12018
RightFoot  -19.8854 0.00388384 1.90531
RightToes  5.82063e-011 0 -3.6325e-017
Spine  9.88763 1.13672 6.54109
Spine1  16.9844 3.80025 -6.4367
HEad  -5.86974 0.947119 1.27297
LeftShoulder1  1.06037 -0.363653 -20.9848
LeftArm  1.52723 -48.4151 -44.5647
LeftForeArm  -3.97091 -28.5944 -6.39882
LeftHand  -0.0213084 5.72614 0.247815
RightShoulder  0.921442 0.062385 19.5133
RightArm  10.3068 51.5456 53.3146
RightForeArm  -27.5058 14.5987 6.70056
RightHand  -0.174403 3.22295 -2.59274
LeftUpLeg  -15.4649 6.82054 2.5613
LeftLeg  17.079 -3.8219 -1.04784
LeftFoot  10.42 -0.715104 3.37789
LeftToes  1.81573e-012 2.54609e-010 -3.45981e-011
221
root  43.5212 37.2344 1.10705 -15.8414 83.6155 -4.8152
RightUpLeg  -0.557448 -0.563751 -1.702
RightLeg  44.9308 2.32551 2.19655
RightFoot  -17.0865 0.256116 7.88218
RightToes  5.82063e-011 0 -3.6325e-017
Spine  11.2946 1.44343 5.45302
Spine1  16.4296 4.52806 -8.1651
HEad  -7.16413 0.919197 1.34348
LeftShoulder1  1.07188 -0.377186 -21.2069
LeftArm  1.90362 -50.402 -44.4578
LeftForeArm  -4.23934 -26.4525 -5.89944
LeftHand  -0.024013 5.85748 0.0420062
RightShoulder  1.0347 0.604874 18.7807
RightArm  9.68116 54.1131 54.9343
RightForeArm  -25.0182 9.40025 7.35249
RightHand  -0.139095 3.52808 -2.06061
LeftUpLeg  -16.337 7.65397 0.882402
LeftLeg  21.8577 -2.73073 -0.872337
LeftFoot  7.4021 -0.801109 4.56928
LeftToes  1.81573e-012 2.54609e-010 -3.45981e-011
222
root  44.2802 37.2441 0.877904 -9.47665 82.5594 1.55006
RightUpLeg  -4.72646 -0.90082 -3.61382
RightLeg  52.6195 2.63268 3.28752
RightFoot  -10.1929 -0.136555 10.1854
RightToes  5.82063e-011 0 -3.6325e-017
Spine  12.5262 1.70358 5.66347
Spine1  16.2019 5.29032 -9.87554
HEad  -8.0002 0.456875 0.506759
LeftShoulder1  1.24586 -0.972178 -21.4597
LeftArm  2.99486 -51.9199 -44.5896
LeftForeArm  -4.83131 -24.4651 -5.47296
LeftHand  -0.0265363 5.83133 -0.757739
RightShoulder  1.10539 1.00183 18.0489
RightArm  9.88946 56.23 55.7709
RightForeArm  -24.0866 5.27834 7.35087
RightHand  -0.150753 3.2189 -2.26873
LeftUpLeg  -15.9291 8.95363 0.000692405
LeftLeg  23.7036 -2.46577 -0.841027
LeftFoot  5.26014 -0.792335 5.20095
LeftToes  1.81573e-012 2.54609e-010 -3.45981e-011
223
root  44.9494 37.351 0.713774 -5.8606 82.7619 5.2291
RightUpLeg  -8.0066 -1.56343 -4.70587
RightLeg  57.544 1.94296 2.84709
RightFoot  -5.31165 -0.456787 7.78872
RightToes  5.82063e-011 0 -3.6325e-017
Spine  14.0514 1.67131 5.236
Spine1  15.6889 5.32467 -10.2605
HEad  -8.69536 0.260102 -0.182508
LeftShoulder1  1.37835 -1.49846 -21.1565
LeftArm  4.38634 -53.1572 -45.5228
LeftForeArm  -5.57984 -22.5535 -5.26749
LeftHand  -0.0305202 6.08812 0.340847
RightShoulder  1.10892 1.02743 17.9881
RightArm  10.1028 58.1559 55.92
RightForeArm  -22.7127 2.13392 7.27321
RightHand  -0.138017 2.91178 -2.15651
LeftUpLeg  -14.9135 9.30917 -0.83224
LeftLeg  24.0017 -2.66041 -0.93929
LeftFoot  4.07203 -0.758122 5.4141
LeftToes  1.81573e-012 2.54609e-010 -3.45981e-011
224
root  45.564 37.6361 0.609037 -5.99548 83.727 4.24236
RightUpLeg  -11.0811 -1.7784 -4.56237
RightLeg  59.1019 1.55941 2.35536
RightFoot  -5.96454 -0.378491 7.19254
RightToes  5.82063e-011 0 -3.6325e-017
Spine  14.1689 1.40656 5.06603
Spine1  15.7121 4.97514 -9.99614
HEad  -8.71115 -0.00276218 -0.660279
LeftShoulder1  1.51239 -2.00244 -21.0692
LeftArm  4.92303 -54.5025 -45.9806
LeftForeArm  -5.25966 -20.4988 -5.57923
LeftHand  -0.0333995 6.01166 -0.378966
RightShoulder  1.12965 1.07327 18.2142
RightArm  9.1965 59.1224 55.2836
RightForeArm  -23.0392 0.672822 7.02645
RightHand  -0.135017 2.27086 -2.23689
LeftUpLeg  -13.9409 9.58108 -1.0299
LeftLeg  22.3879 -4.02986 -1.49478
LeftFoot  3.78336 -0.75309 5.49384
LeftToes  1.81573e-012 2.54609e-010 -3.45981e-011
225
root  46.1255 37.8903 0.553765 -8.79941 84.8583 0.754501
RightUpLeg  -13.3526 -1.68781 -4.31734
RightLeg  57.9925 2.31259 3.53753
RightFoot  -6.78358 -0.350097 7.62904
RightToes  5.82063e-011 0 -3.6325e-017
Spine  14.4486 1.07151 5.0125
Spine1  15.6244 4.54915 -9.84372
HEad  -9.32616 0.331514 -0.950794
LeftShoulder1  1.59383 -2.36005 -20.7708
LeftArm  4.75436 -55.4646 -46.3349
LeftForeArm  -4.55033 -18.7452 -6.13886
LeftHand  -0.0322788 5.93407 -0.0669645
RightShoulder  1.12068 1.05134 18.1319
RightArm  8.24646 59.3854 54.5705
RightForeArm  -23.2863 0.509847 6.77112
RightHand  -0.12163 2.16341 -2.0473
LeftUpLeg  -13.0108 8.61562 -0.975144
LeftLeg  20.9128 -4.27257 -1.55367
LeftFoot  3.59419 -0.694126 5.12606
LeftToes  1.81573e-012 2.54609e-010 -3.45981e-011
226
root  46.6847 38.1891 0.514043 -16.0811 85.9608 -7.25487
RightUpLeg  -14.7771 0.206358 -3.48446
RightLeg  54.0505 3.02708 4.08287
RightFoot  -7.60405 -0.307963 7.80909
RightToes  5.82063e-011 0 -3.6325e-017
Spine  14.377 0.625821 5.12287
Spine1  15.4524 3.96653 -9.20649
HEad  -10.0899 0.734284 -0.665155
LeftShoulder1  1.6589 -2.67455 -20.4132
LeftArm  3.64456 -55.8307 -46.3659
LeftForeArm  -3.74705 -17.6257 -6.48583
LeftHand  -0.0323991 5.85274 -0.604809
RightShoulder  1.16971 1.31656 17.7572
RightArm  7.38189 59.3825 53.8262
RightForeArm  -22.0586 0.703527 6.48845
RightHand  -0.0739454 1.30367 -1.41994
LeftUpLeg  -11.9348 8.4185 -0.529401
LeftLeg  19.1276 -5.38199 -2.01363
LeftFoot  3.66606 -0.669321 4.90932
LeftToes  1.81573e-012 2.54609e-010 -3.45981e-011
227
root  47.1784 38.3743 0.540212 -23.8462 86.9654 -15.6306
RightUpLeg  -15.7988 2.82104 -3.41769
RightLeg  49.0615 3.84439 4.42324
RightFoot  -8.64098 -0.242357 7.87617
RightToes  5.82063e-011 0 -3.6325e-017
Spine  14.5806 0.498077 4.19009
Spine1  14.8292 3.36597 -8.17123
HEad  -10.5303 1.44271 -0.960375
LeftShoulder1  1.67716 -2.65201 -20.8403
LeftArm  4.54612 -56.4362 -46.2178
LeftForeArm  -4.10613 -17.2174 -6.82478
LeftHand  -0.0366487 6.05041 -1.02917
RightShoulder  1.18647 1.46647 17.3241
RightArm  6.62683 59.0554 53.0135
RightForeArm  -21.6153 1.01101 6.32291
RightHand  -0.0441997 0.189263 -0.945903
LeftUpLeg  -11.2196 8.49228 -0.413312
LeftLeg  18.0144 -6.62957 -2.62409
LeftFoot  3.70831 -0.676159 4.94516
LeftToes  1.81573e-012 2.54609e-010 -3.45981e-011
228
root  47.6308 38.4771 0.628439 -13.7627 88.8457 -6.17267
RightUpLeg  -16.1515 6.04026 -3.6543
RightLeg  43.0638 4.75053 4.42894
RightFoot  -10.1983 -0.162307 9.24607
RightToes  5.82063e-011 0 -3.6325e-017
Spine  14.6357 0.0527818 3.2514
Spine1  14.2689 2.57918 -7.57586
HEad  -11.2775 2.29296 -0.679723
LeftShoulder1  1.63911 -2.4961 -20.9143
LeftArm  6.37092 -57.4788 -46.4552
LeftForeArm  -2.45359 -17.0827 -7.02336
LeftHand  -0.0368292 6.05431 -0.546166
RightShoulder  1.1776 1.46807 17.127
RightArm  5.44158 58.3278 52.5061
RightForeArm  -21.6953 1.7293 5.93555
RightHand  0.00486304 0.480689 0.0442805
LeftUpLeg  -10.9409 7.91639 -0.468591
LeftLeg  17.4524 -8.08029 -3.18088
LeftFoot  3.64805 -0.67964 4.99468
LeftToes  1.81573e-012 2.54609e-010 -3.45981e-011
229
root  48.0378 38.5478 0.775051 -128.184 88.5015 -120.987
RightUpLeg  -15.8025 10.3025 -3.96665
RightLeg  36.6429 6.8457 5.19898
RightFoot  -10.8574 -0.115861 9.82209
RightToes  5.82063e-011 0 -3.6325e-017
Spine  14.1343 -0.379427 2.5221
Spine1  14.7732 1.89851 -6.99553
HEad  -12.3033 2.87953 -0.372432
LeftShoulder1  1.58488 -2.40662 -20.3878
LeftArm  9.99092 -58.4259 -47.8619
LeftForeArm  3.99267 -18.9524 -6.14416
LeftHand  -0.0391804 6.11034 -1.07761
RightShoulder  1.12037 1.21563 17.1856
RightArm  4.4333 57.8125 51.4953
RightForeArm  -22.2905 2.49382 5.75382
RightHand  0.00205364 0.830171 -0.0475047
LeftUpLeg  -10.7803 7.40135 -0.491999
LeftLeg  17.3773 -9.69198 -3.64233
LeftFoot  3.38919 -0.670019 5.02089
LeftToes  1.81573e-012 2.54609e-010 -3.45981e-011
230
root  48.4173 38.64 0.961702 -173.987 86.2316 -166.861
RightUpLeg  -14.8715 15.5787 -4.18179
RightLeg  30.8658 9.25022 5.69754
RightFoot  -10.5677 -0.134044 9.21676
RightToes  5.82063e-011 0 -3.6325e-017
Spine  14.0834 -0.734806 1.88844
Spine1  15.0491 1.12885 -5.8333
HEad  -12.749 3.29056 -0.810128
LeftShoulder1  1.53621 -2.13585 -20.8314
LeftArm  15.8381 -58.5093 -48.9834
LeftForeArm  17.288 -25.9302 -4.44612
LeftHand  -0.0272874 5.35776 -1.24832
RightShoulder  1.06732 1.15717 16.3073
RightArm  3.12424 56.1814 49.9921
RightForeArm  -23.2794 4.14278 5.55984
RightHand  -0.00610376 0.728408 -0.167462
LeftUpLeg  -10.1264 7.05937 -0.462376
LeftLeg  16.9186 -11.9214 -4.24475
LeftFoot  3.30729 -0.648689 4.88761
LeftToes  1.81573e-012 2.54609e-010 -3.45981e-011
231
root  48.7975 38.6626 1.1673 176.92 83.7157 -176.211
RightUpLeg  -14.0889 20.0322 -4.99966
RightLeg  26.4883 13.2564 6.86683
RightFoot  -10.305 -0.158275 9.75885
RightToes  5.82063e-011 0 -3.6325e-017
Spine  14.1876 -1.27613 1.46662
Spine1  14.3728 0.788684 -6.8091
HEad  -12.1558 3.09871 -0.417508
LeftShoulder1  1.47757 -2.10663 -19.9101
LeftArm  13.3319 -57.2134 -49.8015
LeftForeArm  30.7375 -33.5381 -5.68044
LeftHand  -0.032151 5.5073 -0.957394
RightShoulder  1.01895 0.701496 17.7265
RightArm  2.68965 53.6698 47.9227
RightForeArm  -25.7122 7.07157 5.95725
RightHand  -0.0565194 1.40202 -1.11069
LeftUpLeg  -9.83561 6.23524 -1.07586
LeftLeg  16.7492 -13.6217 -4.70893
LeftFoot  3.17562 -0.624273 4.74723
LeftToes  1.81573e-012 2.54609e-010 -3.45981e-011
232
root  49.1576 38.645 1.41899 171.329 80.9197 177.961
RightUpLeg  -12.6877 22.2957 -5.42819
RightLeg  22.5685 18.3301 7.99199
RightFoot  -9.15375 -0.302106 12.1052
RightToes  5.82063e-011 0 -3.6325e-017
Spine  13.6929 -1.33503 0.314674
Spine1  14.6689 0.321975 -5.93314
HEad  -11.6999 2.17891 -0.706211
LeftShoulder1  1.31426 -1.21142 -21.4656
LeftArm  12.387 -56.3263 -51.0986
LeftForeArm  29.4051 -40.0073 -7.5193
LeftHand  -0.019967 4.21529 -0.405373
RightShoulder  1.017 0.833262 16.8858
RightArm  0.948608 49.4624 45.9364
RightForeArm  -27.3212 11.4475 5.55148
RightHand  -0.038898 1.20762 -0.798568
LeftUpLeg  -9.68753 5.75908 -1.7876
LeftLeg  16.8985 -15.822 -5.46978
LeftFoot  3.0533 -0.601491 4.61313
LeftToes  1.81573e-012 2.54609e-010 -3.45981e-011
